<svg class="svg-icon" viewBox="0 0 1024 1024" xmlns="http://www.w3.org/2000/svg"><path d="M801.476923 618.338462c-33.476923-7.876923-64.984615-3.938462-92.553846 5.907692L273.723077 47.261538c-5.907692-7.876923-19.692308-9.846154-27.569231-3.938461l-15.753846 11.815385c-33.476923 25.6-39.384615 74.830769-13.784615 110.276923l208.738461 275.692307c7.876923 9.846154 7.876923 25.6 0 35.446154l-112.246154 147.692308c-27.569231-9.846154-61.046154-11.815385-92.553846-5.907692-72.861538 15.753846-129.969231 74.830769-139.815384 147.692307-15.753846 116.184615 86.646154 216.615385 206.76923 196.923077 70.892308-11.815385 128-66.953846 143.753846-135.876923 9.846154-49.230769 0-94.523077-23.630769-128l82.707693-110.276923c11.815385-15.753846 35.446154-15.753846 47.261538 0l82.707692 110.276923c-23.630769 37.415385-33.476923 82.707692-23.630769 128 13.784615 70.892308 72.861538 124.061538 143.753846 135.876923 120.123077 19.692308 222.523077-80.738462 206.769231-196.923077-17.723077-74.830769-74.830769-133.907692-145.723077-147.692307zM254.030769 848.738462c-33.476923 0-59.076923-25.6-59.076923-59.076924s25.6-59.076923 59.076923-59.076923 59.076923 25.6 59.076923 59.076923-25.6 59.076923-59.076923 59.076924z m512 0c-33.476923 0-59.076923-25.6-59.076923-59.076924s25.6-59.076923 59.076923-59.076923 59.076923 25.6 59.076923 59.076923c-1.969231 33.476923-27.569231 59.076923-59.076923 59.076924z m-149.661538-476.553847c7.876923 9.846154 23.630769 9.846154 31.507692 0l157.538462-206.76923c21.661538-29.538462 19.692308-68.923077-1.969231-96.492308l1.969231-1.969231-1.969231 1.969231c-3.938462-5.907692-29.538462-25.6-29.538462-25.6-7.876923-5.907692-21.661538-3.938462-27.56923 3.938461l-173.292308 230.4c-7.876923 9.846154-7.876923 25.6 0 35.446154l43.323077 59.076923z"  /></svg>