<svg viewBox="0 0 1024 1024" xmlns="http://www.w3.org/2000/svg"><path d="M682.666667 512a85.333333 85.333333 0 0 1 85.333333-85.333333 85.333333 85.333333 0 0 1 85.333333 85.333333 85.333333 85.333333 0 0 1-85.333333 85.333333 85.333333 85.333333 0 0 1-85.333333-85.333333m-256 0a85.333333 85.333333 0 0 1 85.333333-85.333333 85.333333 85.333333 0 0 1 85.333333 85.333333 85.333333 85.333333 0 0 1-85.333333 85.333333 85.333333 85.333333 0 0 1-85.333333-85.333333m-256 0a85.333333 85.333333 0 0 1 85.333333-85.333333 85.333333 85.333333 0 0 1 85.333333 85.333333 85.333333 85.333333 0 0 1-85.333333 85.333333 85.333333 85.333333 0 0 1-85.333333-85.333333z" fill="" /></svg>